Coordinates
version=1
nRows=9
nColumns=24
inDegrees=yes

Units are S.I. units (second, meters, Newtons, ...)
Angles are in degrees.

endheader
time	pelvis_tilt	pelvis_list	pelvis_rotation	pelvis_tx	pelvis_ty	pelvis_tz	hip_flexion_r	hip_adduction_r	hip_rotation_r	knee_angle_r	ankle_angle_r	subtalar_angle_r	mtp_angle_r	hip_flexion_l	hip_adduction_l	hip_rotation_l	knee_angle_l	ankle_angle_l	subtalar_angle_l	mtp_angle_l	lumbar_extension	lumbar_bending	lumbar_rotation
      1.58000000	     -9.08138650	      0.13410683	      4.07806134	     -0.26078607	      1.23637402	     -0.84162449	     35.51749754	      3.62537866	      1.39852427	    -45.15955743	      6.27012170	     -4.69289455	      9.45676818	     12.30729867	     10.34957161	     12.91882806	    -18.20416012	      5.95007225	     -4.77300329	      8.11396630	     -5.03342056	     -0.31572672	      0.28128370
      1.58500000	     -9.11683005	      0.00993989	      4.03995424	     -0.25527436	      1.23627039	     -0.84148500	     35.57721441	      3.74077227	      1.71880254	    -43.00771124	      6.53225092	     -5.03645489	      9.13934436	     11.84370313	     10.17436733	     12.98201782	    -18.09108881	      6.26808744	     -4.79259402	      8.04011816	     -5.03127104	     -0.16767080	      0.23536259
      1.59000000	     -9.14957454	     -0.11659916	      4.02500645	     -0.24978013	      1.23611957	     -0.84136271	     35.56967435	      3.82973656	      2.01623901	    -40.75504871	      6.74391563	     -5.36989751	      8.86754946	     11.40989312	     10.00821032	     13.05475687	    -18.03821689	      6.60082028	     -4.83519138	      7.99723554	     -5.03128627	     -0.01876753	      0.19224035
      1.59500000	     -9.18999232	     -0.22586391	      3.99390302	     -0.24417673	      1.23591267	     -0.84116434	     35.50559953	      3.90948446	      2.32723010	    -38.42393321	      6.87764607	     -5.86603736	      8.51692958	     10.96100417	      9.83923120	     13.04347873	    -17.94810902	      6.95150453	     -4.74628623	      7.93975872	     -5.00561276	      0.09907427	      0.18721396
      1.60000000	     -9.23029647	     -0.34235549	      4.00931351	     -0.23855114	      1.23565952	     -0.84105057	     35.37157580	      3.93738661	      2.55576215	    -36.00232332	      6.95255223	     -6.23597843	      8.26459829	     10.53120390	      9.68297428	     13.08204900	    -17.89822331	      7.29421016	     -4.70443901	      7.91496464	     -4.97448132	      0.23300470	      0.11214669
      1.60500000	     -9.27349289	     -0.44214706	      4.03037827	     -0.23289794	      1.23533722	     -0.84089357	     35.17836408	      3.94260928	      2.78726085	    -33.51032286	      6.95392482	     -6.66404489	      8.02383211	     10.12048796	      9.54263234	     13.09222659	    -17.88279916	      7.65212166	     -4.61971142	      7.89645248	     -4.94072636	      0.33605737	      0.07769420
      1.61000000	     -9.32120181	     -0.52210521	      4.04693873	     -0.22718993	      1.23492018	     -0.84069591	     34.93271074	      3.92766240	      3.02789166	    -30.96797829	      6.86286337	     -7.13968319	      7.80465923	      9.74132341	      9.41978522	     13.02024217	    -17.92527940	      8.07214213	     -4.45147553	      7.87040843	     -4.88474984	      0.41475068	      0.08421687
      1.61500000	     -9.37836980	     -0.58647216	      4.13442708	     -0.22141695	      1.23443967	     -0.84062472	     34.64670257	      3.81756922	      3.10535323	    -28.41692061	      6.74761430	     -7.42662332	      7.66673240	      9.36180226	      9.33828778	     13.06673276	    -17.95842968	      8.41591241	     -4.33934637	      7.87684692	     -4.81264628	      0.48770749	     -0.00738600
      1.62000000	     -9.43071134	     -0.61836466	      4.22247555	     -0.21564387	      1.23385838	     -0.84050529	     34.32977690	      3.67783015	      3.17172896	    -25.89755995	      6.54921440	     -7.69881885	      7.55581598	      9.01233523	      9.29219427	     13.06445462	    -18.06223837	      8.78793971	     -4.19929979	      7.89832409	     -4.74653343	      0.51686287	     -0.05328142
